<?xml version="1.0"?><svg xmlns="http://www.w3.org/2000/svg"  viewBox="0 0 30 30" width="30px" height="30px">    <path d="M26,6.095V5.048c0-0.289-0.234-0.524-0.524-0.524h-2.095c-0.207,0-0.374,0.014-0.524,0.052V4.524 C22.857,4.235,22.623,4,22.333,4H19.19c-0.908,0-1.237,0.515-1.429,1.048h-0.425c-0.122-0.163-0.24-0.374-0.24-0.524 C17.095,4.235,16.861,4,16.571,4h-3.667c-0.268,0-0.492,0.206-0.521,0.471c-0.012,0.11-0.235,0.576-0.581,0.576h-1.435 c-0.034-0.04-0.083-0.115-0.126-0.211c-0.084-0.19-0.272-0.313-0.48-0.313H4.524C4.234,4.524,4,4.759,4,5.048v4.19 c0,1.479,0.432,3.351,0.523,3.728L4.519,13.76l-0.355,0.336C4.059,14.194,4,14.332,4,14.476v2.095c0,0.139,0.055,0.272,0.153,0.37 l0.37,0.37v2.317L4.027,21.12c-0.032,0.095-0.036,0.196-0.011,0.293l0.487,1.948l-0.475,1.427c-0.054,0.16-0.027,0.336,0.072,0.472 c0.098,0.136,0.256,0.217,0.424,0.217h7.333c0.139,0,0.272-0.055,0.37-0.153l0.047-0.047C12.553,25.656,12.94,26,13.429,26H15 c0.386,0,0.723-0.168,1.02-0.317c0.203-0.102,0.413-0.207,0.552-0.207h2.619c0.139,0,0.272-0.055,0.37-0.153l0.127-0.127 c0.033,0.042,0.064,0.083,0.095,0.123C20.041,25.654,20.306,26,20.762,26h2.619c0.29,0,0.524-0.234,0.524-0.524V25.1l1.445,0.36 c0.157,0.04,0.323,0.004,0.45-0.096c0.127-0.1,0.201-0.253,0.2-0.415c-0.001-0.051-0.033-5.191,0-7.847 c0.002-0.141-0.054-0.277-0.153-0.377l-0.37-0.37v-2.402c0-0.139-0.055-0.272-0.153-0.37l-0.257-0.257l0.317-0.634l0.464-0.464 C25.945,12.13,26,11.996,26,11.857l-0.008-2.624c0-0.042-0.005-0.084-0.015-0.126l-0.469-1.902l0.437-0.875 C25.981,6.257,26,6.176,26,6.095z M19.761,8.191l1.594,1.048l-0.532,3.143l-4.252-3.143L19.761,8.191z M9.762,21.81l-2.095-1.571 l1.048-3.667l4.19,4.19L9.762,21.81z M20.867,21.286h-2.445L7.667,8.676l1.955-0.485l12.711,9.7L20.867,21.286z"/></svg>